<?xml version="1.0" encoding="UTF-8"?>
<svg xmlns="http://www.w3.org/2000/svg" viewBox="0 0 570.15 571.63">
  <defs>
    <style>
      .cls-1 {
        fill: #fff;
      }

      .cls-2 {
        fill: none;
        stroke: #000;
        stroke-miterlimit: 10;
        stroke-width: 3px;
      }
    </style>
  </defs>
  <g id="Layer_2" data-name="Layer 2">
    <g id="Layer_6" data-name="Layer 6">
      <ellipse class="cls-1" cx="285.06" cy="285.79" rx="285.06" ry="285.79"/>
    </g>
    <path d="M285.09,3.06s-.08,0-.12,0c-.02,0-.03,0-.05,0-.02,0-.05,0-.07,0-.02,0-.03,0-.05,0-.02,0-.05,0-.07,0,0,0-.03,0-.04,0-.03,0-.06,0-.08,0,0,0-.02,0-.03,0-.03,0-.06,0-.09,0,0,0-.02,0-.03,0-.03,0-.07,0-.1,0h-.01c-1.08,0-2.17.01-3.25.03l.56,40c1.15-.02,2.3-.02,3.45-.02V3.06h0ZM248.19,5.45c-.88.12-1.76.23-2.64.36,0,0,0,0-.01,0-.44.06-.87.12-1.31.19l5.73,39.59c1.13-.16,2.26-.32,3.4-.47l-5.17-39.66h0ZM211.92,12.62c-.18.05-.37.1-.54.15-.01,0-.03,0-.04.01,0,0-.04.01-.05.01-.03,0-.06.02-.08.02,0,0-.01,0-.02,0-.44.12-.87.24-1.31.36-.03,0-.05.01-.07.02-.01,0-.02,0-.04.01-.04,0-.06.02-.09.02,0,0,0,0-.01,0-.53.15-1.07.3-1.61.45l10.87,38.49c1.1-.31,2.2-.61,3.31-.91l-10.32-38.64h0ZM176.91,24.5c-.56.23-1.12.47-1.68.7,0,0,0,0,0,0-.02.01-.05.02-.08.03-.02,0-.03.01-.05.02-.02,0-.03.01-.04.02-.61.26-1.22.52-1.83.78l15.84,36.73c1.05-.45,2.1-.9,3.16-1.34l-15.31-36.95h0ZM143.75,40.87c-1.15.67-2.3,1.34-3.45,2.03l20.51,34.34c.98-.59,1.97-1.17,2.96-1.74l-20.02-34.63h0ZM113.02,61.42c-1.06.81-2.11,1.63-3.16,2.46l24.81,31.38c.9-.71,1.8-1.41,2.71-2.11l-24.36-31.73h0ZM85.22,85.8c-.41.41-.82.83-1.23,1.24h0c-.05.06-.11.11-.16.17,0,0-.02.02-.02.02-.05.05-.1.1-.15.15-.02.02-.02.02-.04.04-.04.04-.08.08-.12.13-.02.02-.04.04-.06.06-.04.04-.07.07-.11.11-.02.03-.05.05-.08.08-.03.03-.06.06-.09.1-.02.03-.05.05-.08.08-.04.04-.07.08-.11.11-.01.01-.04.04-.05.05-.04.05-.09.09-.13.14,0,0-.02.02-.02.02-.11.12-.23.23-.34.35l28.67,27.9c.8-.82,1.6-1.64,2.41-2.45l-28.27-28.3h0ZM60.82,113.58c-.81,1.06-1.62,2.12-2.42,3.19l32.05,23.94c.69-.92,1.38-1.83,2.08-2.74l-31.7-24.39h0ZM40.24,144.3c-.63,1.09-1.26,2.19-1.88,3.29,0,0,0,0,0,.01-.02.03-.02.04-.04.07-.01.03-.03.05-.04.08,0,0,0,0,0,.02l34.89,19.56c.56-1,1.13-1.99,1.7-2.98l-34.61-20.05h0ZM23.84,177.44h0s-.03.07-.04.1c0,0,0,0,0,.02-.02.04-.03.07-.05.11,0,0,0,0,0,.02-.01.03-.03.06-.04.09,0,0,0,.01,0,.02-.01.03-.02.06-.04.09,0,0,0,.02-.01.03-.01.03-.03.06-.04.09h0c-.43,1.05-.85,2.09-1.27,3.14l37.15,14.82c.42-1.06.86-2.12,1.29-3.18l-36.94-15.35h0ZM11.94,212.44c-.03.12-.06.24-.1.36,0,0,0,0,0,0,0,.03-.02.06-.02.09,0,0,0,.03-.01.04,0,.02-.01.04-.02.07,0,.02,0,.03-.01.05,0,.02,0,.03-.01.05-.01.05-.03.11-.04.16,0,0,0,0,0,0,0,.03-.02.06-.02.09,0,0,0,.01,0,.02,0,.03-.01.05-.02.08,0,.01,0,.03-.01.04,0,.02-.01.05-.02.07,0,.01,0,.03-.01.04,0,.02-.01.05-.02.07,0,.02,0,.04-.01.06,0,.03,0,.03-.01.05,0,.02-.01.05-.02.07,0,.02,0,.02,0,.04-.13.48-.25.96-.37,1.44,0,0,0,0,0,.02,0,.03-.01.06-.02.09,0,.02,0,.02-.01.04,0,.01,0,.03-.01.04-.07.26-.13.53-.2.79l38.78,9.8c.28-1.11.57-2.22.86-3.32l-38.64-10.36h0ZM4.73,248.7c-.04.28-.07.57-.11.85,0,0,0,.01,0,.02,0,.03,0,.05-.01.08,0,.02,0,.03,0,.05,0,.02,0,.03,0,.05-.06.51-.13,1-.19,1.51,0,0,0,0,0,0,0,.04,0,.06-.01.1,0,0,0,.01,0,.02,0,.04,0,.05-.01.09,0,0,0,.02,0,.03,0,.03,0,.06-.01.09,0,0,0,.02,0,.03,0,.03,0,.06-.01.09,0,0,0,0,0,0-.04.32-.08.64-.11.97l39.73,4.64c.13-1.14.27-2.27.42-3.41l-39.66-5.2h0ZM2.32,285.6s0,.06,0,.1c0,.05,0,.1,0,.14,0,.04,0,.08,0,.12,0,.03,0,.05,0,.08v.03s0,.06,0,.1h0c0,.05,0,.08,0,.12h0c0,1.12,0,2.22.02,3.32l40-.52c-.01-1.08-.02-2.16-.02-3.24v-.21s-40-.03-40-.03h0ZM44.34,317.37l-39.67,5.14c.17,1.33.35,2.64.54,3.96l39.59-5.7c-.16-1.13-.32-2.27-.46-3.4h0ZM50.47,348.49l-38.65,10.29c.07.26.14.52.21.78,0,0,0,0,0,.01,0,.03.02.06.02.08,0,.01,0,.03.01.04,0,.03.01.04.02.07,0,.02,0,.04.01.06,0,.02,0,.03.01.05,0,.03.02.06.02.09,0,0,0,.02,0,.03.01.04.02.08.03.12h0s.02.08.03.11c0,0,0,.02,0,.03,0,.03.02.06.02.09,0,0,0,.01,0,.02,0,.03.02.06.03.09,0,0,0,.02,0,.03,0,.03.02.07.03.1,0,0,0,0,0,0,.19.68.38,1.36.57,2.04l38.5-10.84c-.31-1.1-.61-2.2-.91-3.31h0ZM60.62,378.52l-36.97,15.28c.51,1.23,1.03,2.46,1.55,3.69l36.74-15.81c-.45-1.05-.9-2.1-1.33-3.16h0ZM74.64,406.98l-34.65,19.99c.67,1.16,1.34,2.31,2.02,3.45l34.36-20.48c-.59-.98-1.16-1.97-1.74-2.96h0ZM92.28,433.39l-31.75,24.34s.06.08.09.12c.02.02.04.05.06.07,0,0,0,0,0,.01.48.62.96,1.24,1.44,1.86,0,0,.02.02.02.03.01.02.02.03.04.05.27.34.53.68.8,1.02l31.4-24.78c-.71-.9-1.41-1.8-2.11-2.71h0ZM113.21,457.29l-28.32,28.25c.84.84,1.71,1.7,2.56,2.53.02.02.03.03.05.05.04.04.07.06.1.1.03.03.07.07.1.1,0,0,.02.02.03.03l27.92-28.64c-.82-.8-1.64-1.61-2.44-2.42h0ZM137.06,478.28l-24.42,31.68c.57.44,1.15.88,1.73,1.32,0,0,0,0,0,0,.49.37.96.73,1.45,1.1l23.97-32.03c-.92-.69-1.83-1.38-2.74-2.08h0ZM163.42,495.98l-20.08,34.59c1.15.67,2.31,1.33,3.47,1.98l19.59-34.88c-1-.56-1.99-1.13-2.98-1.7h0ZM191.84,510.08l-15.38,36.93c1.23.51,2.46,1.02,3.7,1.51l14.85-37.14c-1.06-.42-2.12-.86-3.18-1.3h0ZM221.85,520.31l-10.39,38.63c.77.21,1.54.41,2.32.61.02,0,.04.01.06.02.02,0,.03,0,.04.01.48.13.96.25,1.45.37l9.84-38.77c-1.11-.28-2.22-.57-3.32-.87h0ZM252.96,526.52l-5.24,39.66c.63.08,1.27.17,1.91.24,0,0,0,0,.01,0,.04,0,.06,0,.1.01,0,0,.01,0,.02,0,.04,0,.06,0,.09.01.01,0,.02,0,.03,0,.03,0,.05,0,.08.01.02,0,.03,0,.05,0,.04,0,.09.01.12.02.02,0,.04,0,.05,0,.03,0,.04,0,.07,0,.02,0,.03,0,.05,0,.03,0,.04,0,.07,0,.02,0,.03,0,.05,0,.02,0,.06,0,.08,0,0,0,.02,0,.03,0,.04,0,.06,0,.09.01,0,0,0,0,0,0,.35.04.71.09,1.06.13l4.67-39.73c-1.14-.13-2.27-.28-3.41-.43h0ZM288.13,528.6c-1.01.01-2.03.02-3.04.02h-.41s-.07,40-.07,40c.08,0,.13,0,.21,0,.09,0,.18,0,.27,0h.13s.06,0,.1,0c0,0,0,0,.01,0,.04,0,.07,0,.1,0h0s.07,0,.11,0h0c1.03,0,2.04,0,3.07-.02l-.49-40h0ZM319.82,526.16c-1.13.16-2.27.32-3.4.46l5.1,39.67c.27-.03.53-.07.8-.1,0,0,0,0,.01,0,.03,0,.06,0,.08-.01.02,0,.05,0,.07,0,0,0,.03,0,.03,0,.99-.13,1.98-.27,2.96-.41l-5.66-39.6h0ZM350.86,519.62c-1.1.31-2.2.61-3.31.9l10.26,38.66c.26-.07.52-.14.78-.21.01,0,.03,0,.04-.01,0,0,.03,0,.04-.01.56-.15,1.11-.3,1.67-.45h0s.07-.02.1-.03c.02,0,.02,0,.04-.01.02,0,.04-.01.06-.02.03,0,.04-.01.06-.02,0,0,.02,0,.03,0,.34-.09.69-.19,1.03-.29l-10.81-38.51h0ZM380.75,509.06c-1.05.45-2.1.89-3.16,1.33l15.25,36.98c.14-.06.28-.11.42-.17,0,0,.02,0,.02-.01.02,0,.03-.01.05-.02.03-.01.05-.02.08-.03,0,0,0,0,.01,0,.65-.27,1.3-.54,1.95-.82.02,0,.03-.01.05-.02.02,0,.04-.02.05-.02.02-.01.05-.02.08-.03,0,0,.01,0,.02,0,.32-.14.64-.27.96-.41l-15.78-36.76h0ZM409.02,494.66c-.98.58-1.97,1.16-2.96,1.73l19.96,34.66c1.16-.67,2.31-1.34,3.45-2.02l-20.45-34.38h0ZM435.19,476.67c-.9.71-1.8,1.41-2.71,2.11l24.31,31.77c.16-.12.33-.25.49-.37,0,0,0,0,.02-.01.03-.02.05-.04.08-.06,0,0,.02-.01.02-.02.02-.02.05-.04.07-.05,0,0,.02-.01.03-.02.02-.02.04-.03.07-.05.01-.01.03-.02.04-.03.03-.02.05-.04.08-.06.01-.01.01,0,.02-.02.02-.02.04-.03.07-.05,0,0,.03-.02.04-.03.02-.01.04-.03.06-.04.01-.01.02-.02.04-.03.02-.01.04-.03.05-.04.01-.01.03-.02.04-.03.02-.02.04-.03.06-.05.01-.01.02-.01.03-.02.03-.02.06-.05.09-.07,0,0,.02-.01.02-.02.02-.02.05-.03.07-.05.01-.01.02-.02.04-.03.02-.01.04-.03.05-.04.01-.01.03-.02.05-.03.01-.01.03-.02.04-.03.01-.01.04-.03.05-.04.01-.01.03-.02.04-.03.02-.02.03-.03.05-.04.01,0,.02-.02.03-.02.45-.35.89-.69,1.33-1.04l-24.75-31.42h0ZM458.82,455.43c-.8.82-1.61,1.63-2.42,2.44l28.23,28.34.02-.02c.94-.94,1.87-1.88,2.8-2.83l-28.62-27.94h0ZM479.49,431.3c-.69.92-1.38,1.83-2.08,2.74l31.66,24.44c.6-.78,1.2-1.56,1.79-2.34,0,0,0,0,0,0,.02-.03.04-.05.06-.08,0,0,.01-.02.02-.02.02-.02.03-.04.05-.06,0-.01.02-.02.02-.03.02-.02.03-.03.04-.05.05-.06.1-.13.14-.19h0s.05-.07.07-.1c0,0,0,0,0,0,.07-.1.15-.2.22-.3l-32.01-23.99h0ZM496.84,404.71c-.56,1-1.13,1.99-1.71,2.98l34.58,20.11c.3-.52.61-1.05.91-1.57,0,0,0,0,0,0,.02-.03.03-.05.05-.08,0,0,.01-.02.02-.03.01-.02.02-.04.04-.06.02-.03.03-.06.05-.09,0,0,0,0,0,0,.31-.54.62-1.09.92-1.63l-34.86-19.62h0ZM510.55,376.1c-.43,1.06-.86,2.12-1.3,3.17l36.91,15.41c.51-1.23,1.02-2.46,1.51-3.7l-37.13-14.88h0ZM520.38,345.96c-.28,1.11-.57,2.21-.87,3.32l38.62,10.42c.11-.4.21-.8.32-1.2,0,0,0-.02,0-.02l.02-.09s0-.02.01-.04c0-.02.01-.04.02-.07,0-.02,0-.03.01-.05,0-.02.01-.04.02-.06,0-.02,0-.04.01-.05,0-.02,0-.03.01-.05,0-.03.01-.04.02-.07,0-.01,0-.02,0-.04.02-.09.05-.17.07-.26,0,0,0-.02,0-.03,0-.03.01-.05.02-.07,0-.01,0-.03.01-.04,0-.02.01-.05.02-.07,0-.01,0-.03.01-.04,0-.02.01-.04.02-.06,0-.02,0-.04.01-.06,0-.03,0-.03.02-.06,0-.02,0-.04.01-.06,0-.02,0-.03.01-.05,0-.03.02-.06.02-.09,0,0,0-.02,0-.03.01-.04.02-.08.03-.12,0,0,0-.01,0-.02,0-.03.02-.06.02-.09,0,0,0-.03,0-.04,0-.03.01-.06.02-.08,0,0,0-.02,0-.03,0-.03.02-.06.02-.09v-.02s.02-.07.03-.11c0,0,0,0,0-.01,0-.04.02-.08.03-.12h0c.03-.12.06-.24.09-.36,0,0,0-.02,0-.03,0-.03.01-.06.02-.09,0,0,0,0,0-.02l-38.76-9.87h0ZM526.17,314.77c-.13,1.14-.28,2.28-.43,3.41l39.65,5.27s0,0,0-.02c0-.03,0-.05.01-.08,0,0,0-.03,0-.04,0-.02,0-.05,0-.07,0-.02,0-.03,0-.05,0-.02,0-.05,0-.07,0-.02,0-.03,0-.05,0-.03,0-.06.01-.1,0-.03,0-.04,0-.07,0-.02,0-.04,0-.06,0-.02,0-.03,0-.05,0-.02,0-.04,0-.07,0-.02,0-.04,0-.06,0-.02,0-.04,0-.06,0-.02,0-.04,0-.06,0-.02,0-.04,0-.06,0-.02,0-.04,0-.05,0-.02,0-.05,0-.07,0,0,0-.03,0-.04,0-.03,0-.06.01-.09,0,0,0-.02,0-.03.12-.91.23-1.81.34-2.72l-39.72-4.71h0ZM567.85,282.55l-40,.46c.01.94.02,1.89.02,2.83v.62s40,.1,40,.1c0-.08,0-.14,0-.22,0-.1,0-.21,0-.31h0c0-.07,0-.13,0-.18h0c0-.06,0-.13,0-.19v-.02c0-.06,0-.13,0-.19v-.02c0-.96,0-1.92-.02-2.87h0ZM565.04,245.69l-39.6,5.63c.16,1.13.31,2.27.46,3.4l39.68-5.07c-.12-.94-.24-1.87-.37-2.8,0,0,0,0,0,0-.05-.39-.11-.77-.16-1.16h0ZM557.45,209.5l-38.52,10.78c.31,1.1.61,2.2.9,3.31l38.67-10.23c-.23-.88-.47-1.77-.71-2.65,0,0,0-.03-.01-.04,0-.02-.01-.04-.02-.07,0-.02-.01-.05-.02-.07,0,0,0-.02,0-.03-.09-.34-.19-.67-.28-1.02h0ZM545.16,174.63l-36.77,15.74c.45,1.05.89,2.11,1.33,3.16l36.99-15.22c-.51-1.23-1.03-2.47-1.55-3.69h0ZM528.41,141.67l-34.39,20.42c.58.98,1.16,1.97,1.73,2.96l34.68-19.93s-.04-.06-.06-.1c0,0,0-.01-.01-.02,0-.01-.01-.02-.02-.03-.64-1.11-1.28-2.2-1.93-3.3h0ZM507.49,111.18l-31.44,24.73c.71.9,1.41,1.81,2.11,2.72l31.79-24.28c-.32-.41-.63-.82-.95-1.23,0,0,0,0,0,0-.02-.03-.04-.05-.06-.08,0,0,0,0,0,0-.06-.08-.12-.16-.18-.23,0,0,0-.01-.01-.02-.01-.01-.03-.03-.04-.05-.01-.02-.02-.03-.04-.05,0,0-.02-.03-.03-.04-.02-.02-.03-.04-.05-.06-.01-.01-.01-.01-.02-.03-.02-.03-.04-.05-.06-.08,0,0,0,0-.01-.01-.33-.43-.66-.85-1-1.28h0ZM482.8,83.66l-27.97,28.6c.82.8,1.63,1.61,2.44,2.42l28.37-28.2s-.03-.03-.04-.04c-.04-.04-.07-.07-.11-.11-.01-.01-.04-.04-.05-.06-.04-.04-.08-.08-.12-.12-.02-.02-.04-.04-.06-.06-.04-.04-.09-.09-.13-.13-.01-.01-.03-.03-.04-.04-.04-.04-.08-.08-.13-.13-.01-.01-.03-.03-.05-.05-.04-.04-.08-.08-.13-.13-.02-.02-.04-.04-.05-.05-.04-.04-.09-.09-.13-.13-.02-.02-.03-.03-.05-.05-.04-.04-.08-.08-.12-.12-.02-.02-.03-.02-.04-.04-.05-.04-.09-.09-.14-.13-.01-.01-.03-.03-.04-.04-.05-.05-.1-.1-.14-.14,0,0-.02-.02-.03-.03-.05-.05-.11-.1-.16-.16h0c-.35-.36-.71-.71-1.07-1.06h0ZM454.74,59.58l-24.02,31.98c.92.69,1.83,1.38,2.73,2.08l24.47-31.64c-.06-.05-.13-.1-.19-.15,0,0,0,0-.02-.01-.02-.02-.04-.03-.06-.05-.61-.47-1.22-.94-1.84-1.4-.01,0-.02-.02-.03-.02-.02-.02-.03-.02-.05-.04-.33-.25-.66-.5-.99-.75h0ZM423.79,39.35l-19.65,34.84c1,.56,1.99,1.13,2.98,1.71l20.14-34.56c-.11-.06-.21-.12-.32-.19h-.01s-.06-.04-.09-.06c0,0-.02-.01-.03-.02-.02-.01-.05-.03-.07-.04,0,0-.02-.01-.03-.02-.02-.01-.05-.03-.07-.04l-.03-.02s-.05-.03-.07-.04c0,0-.02-.01-.03-.02,0,0-.01,0-.02-.01-.05-.03-.1-.06-.15-.09,0,0-.01,0-.02-.01-.02-.01-.05-.03-.07-.04,0,0-.02-.01-.03-.02-.03-.02-.05-.03-.08-.04,0,0,0,0-.01,0-.78-.45-1.55-.89-2.33-1.33h0ZM390.46,23.35l-14.91,37.12c1.06.43,2.12.86,3.17,1.3l15.44-36.9c-1.23-.52-2.46-1.02-3.7-1.52h0ZM355.32,11.85l-9.9,38.75c1.11.28,2.21.57,3.32.87l10.45-38.61c-1.29-.35-2.57-.69-3.87-1.02h0ZM318.97,5.07l-4.74,39.72c1.14.14,2.28.28,3.41.43l5.3-39.65c-.08-.01-.16-.02-.24-.03,0,0-.01,0-.02,0-.02,0-.05,0-.07,0-.02,0-.04,0-.06,0,0,0,0,0-.01,0-1.19-.16-2.37-.31-3.56-.45h0ZM285.09,3.06v40h.82s.13-40,.13-40c-.31,0-.64,0-.95,0h0Z"/>
    <path d="M285.09,3.06c38.08,0,75.01,7.48,109.79,22.22,33.59,14.24,63.75,34.63,89.66,60.6,25.91,25.97,46.24,56.21,60.45,89.89,14.71,34.86,22.17,71.9,22.17,110.07s-7.46,75.21-22.17,110.07c-14.21,33.67-34.54,63.92-60.45,89.89-25.9,25.97-56.07,46.36-89.66,60.6-34.77,14.74-71.71,22.22-109.79,22.22s-75.01-7.48-109.79-22.22c-33.59-14.24-63.75-34.63-89.66-60.6-25.91-25.97-46.24-56.21-60.45-89.89-14.71-34.86-22.17-71.9-22.17-110.07s7.46-75.21,22.17-110.07c14.21-33.67,34.54-63.92,60.45-89.89,25.9-25.97,56.07-46.36,89.66-60.6C210.08,10.53,247.02,3.06,285.09,3.06M285.09.06C127.66.06.04,128.01.04,285.84s127.62,285.79,285.06,285.79,285.06-127.95,285.06-285.79S442.52.06,285.09.06h0Z"/>
    <ellipse class="cls-2" cx="284.45" cy="285.84" rx="243.6" ry="242.22"/>
  </g>
  <g id="Layer_5" data-name="Layer 5">
    <path d="M416.72,172.1c-1.54,2.93-3.35,4.73-4.82,7.62-2.15,5.58-1.32,11.2-1.74,19.22-.29,12.38-1.58,23.88-1.13,36.28.2,9.21.65,17.64-2,27.14-2.76,9.83-6.67,19.08-10.42,29.02-2.86,6.41-6.98,12.07-10.62,17.79-4.18,6.07-11.12,17.39-16.73,20.53-.56.25-.81.51-1.48,1.1-5.65,4.9-8.42,12.57-10.17,19.64-5.51,11.62-7.9,26.04-9.67,39.23-1.31,13.61-2.96,26-4.76,39.57-.73,7-.12,10.37,3.56,15.04,1.74,2.36,3.54,4.95,4.18,7.88.74,3.17.07,7.27-2.95,8.58-5.16,1.4-10.08-3.9-13.39-7.36-4.19-4.68-4.7-8.69-5.63-14.64-1.31-9.56-1.76-18.74-2.42-28.42-.67-24.89-10.39,11.75-10.31,24.66-.15,4.71.48,8.49,3.12,12.18,1.62,2.46,3.77,5.23,3.02,8.22-.85,4.02-6.69,7.01-10.97,5.21-6.25-2.41-9.31-10.17-9.9-15.33-.39-10.93.86-22.59,0-32.77-.48-11-2.26-24.58-2.3-33.72-.69-8.91,3.08-19.44,3.39-28.39-1.23-8.66-14.34-6.02-21.15-6.03-11.56.23-22.59-7.1-31.52-13.02-4.02-2.26-5.44-5.25-9.79-5.86-3.1-.07-4.29,2.35-6.37,5.55-3.61,6.16-6.87,12.39-10.72,18.35-5.08,8.36-11.71,14.9-15.16,22.56-1.63,3.56-3.36,7.75-4.96,11.37-3.21,7.02-6.05,14.96-6.55,22.72-.2,6.32,1,12.4,1.28,18.92.38,8.39,1.66,15.7,6.54,22.9,1.87,3.09,5.92,6.15,5.41,9.87-1.2,6.05-13.73,7.11-18.97,2.95-5.48-3.04-7.78-10.24-9.68-15.95-2.34-7.14-3.51-14.29-5.56-21.35-2.84-9.47-7.48-18.32-9.36-28.12-1.7-6.23.97-11.79,2.76-18.02,3.82-12.31,5.84-26.03,3.96-38.66-1.1-12.05-8.18-21.21-14.44-30.95-4.78-7.08-6.75-16.21-6.66-25-.13-17.56,12.49-27.19,25.7-36.45,15.39-11.88,34.4-19.94,54.19-20.08,11.05-.21,21.97,1.6,31.54,4.51,14.11,5.37,25.94,10.46,42.07,11.17,10.51.76,18.41,2.54,28.99,2.89,11.47-.56,23.67-4.31,30.82-13.9,6.42-12.74,11.77-31.02,9.14-45.61-.49-2.45-.66-3.87-1.98-6.11-1.9-3.13-5.41-7.19-6.05-11.51-.73-7.9,1.43-16.14.74-24.11-.2-9.18.3-18.22,2.52-28.84.69-2.39,1.08-5.39,2.99-6.13.66-.07,1.36.6,2.12,1.82,1.47,2.46,2.75,5.48,4.69,7.71,3.29,4.04,8.39,4.19,13.33,4.06,4.76-.08,9.62-.3,12.78-4.09,2.07-2.3,3.33-5.62,4.93-8.07.91-1.35,1.74-1.8,2.51-1.13,1.23,1.46,2.05,4.17,2.49,6.49,2.38,12.11,2.63,20.88,2.34,31.56-.57,8.06,2.95,18.28-.54,24.87l-.23.45Z"/>
  </g>
</svg>